<?xml version="1.0" encoding="UTF-8"?>
<!-- Generator: visioncortex VTracer 0.6.3 -->
<svg version="1.1" xmlns="http://www.w3.org/2000/svg" width="3000" height="2522">
<path d="M0 0 C93.12 -0.04 186.24 -0.08 282.19 -0.12 C326.27 -0.15 326.27 -0.15 371.25 -0.18 C407.17 -0.19 407.17 -0.19 423.99 -0.19 C436.5 -0.19 449.01 -0.2 461.51 -0.21 C474.29 -0.23 487.07 -0.23 499.86 -0.23 C506.78 -0.23 513.7 -0.23 520.63 -0.24 C574.23 -0.32 574.23 -0.32 597 2 C597.91 2.09 598.83 2.18 599.77 2.28 C605.09 2.83 610.39 3.46 615.69 4.19 C616.47 4.29 617.26 4.4 618.06 4.51 C677.84 12.59 735.13 30.95 789 58 C789.99 58.5 790.97 58.99 791.99 59.5 C833.11 80.24 871.45 106.69 905.49 137.73 C906.82 138.94 908.17 140.14 909.54 141.3 C916.4 147.12 922.69 153.54 929.04 159.91 C931.06 161.93 933.08 163.95 935.11 165.97 C946.53 177.39 946.53 177.39 951.63 183.42 C953.64 185.74 955.8 187.87 958 190 C959.86 188 961.71 186 963.56 184 C964.33 183.17 964.33 183.17 965.12 182.32 C967.85 179.38 970.52 176.4 973.12 173.35 C977.76 168.03 982.77 163.08 987.77 158.1 C989.43 156.44 991.09 154.78 992.75 153.11 C998.33 147.53 1003.98 142.1 1010 137 C1011.19 135.96 1012.38 134.91 1013.57 133.86 C1021.28 127.1 1029.11 120.58 1037.24 114.35 C1038.96 113.03 1040.67 111.69 1042.38 110.35 C1085.5 76.91 1134.75 50.49 1186 32 C1187.84 31.33 1187.84 31.33 1189.72 30.66 C1229.71 16.33 1270.89 7.43 1313.06 2.69 C1313.79 2.61 1314.51 2.52 1315.26 2.44 C1333.59 0.41 1351.87 -0.24 1370.31 -0.25 C1371.84 -0.25 1371.84 -0.25 1373.4 -0.25 C1465.71 -0.19 1557.58 24.65 1713 124 C1713.58 124.48 1714.16 124.96 1714.76 125.46 C1722.15 131.59 1729.32 137.92 1736.35 144.47 C1738.18 146.17 1740.01 147.86 1741.84 149.56 C1743.16 150.79 1744.49 152.02 1745.81 153.25 C1746.73 154.1 1746.73 154.1 1747.66 154.97 C1753.69 160.59 1759.48 166.33 1764.86 172.58 C1767.08 175.1 1769.37 177.55 1771.67 180 C1777.73 186.46 1783.48 193.06 1789 200 C1789.92 201.13 1790.84 202.26 1791.76 203.38 C1855.5 281.63 1897.21 378.05 1911.25 481.88 C1911.4 483.01 1911.55 484.15 1911.71 485.32 C1914.28 506.03 1915.3 526.72 1915.24 547.58 C1915.24 549.93 1915.24 552.28 1915.25 554.64 C1915.25 561.02 1915.24 567.4 1915.23 573.78 C1915.22 579.99 1915.23 586.19 1915.23 592.39 C1915.23 605.05 1915.22 617.72 1915.21 630.38 C1915.2 642.91 1915.19 655.43 1915.19 667.95 C1915.19 668.73 1915.19 669.51 1915.19 670.32 C1915.19 674.29 1915.19 678.26 1915.19 682.23 C1915.18 710.27 1915.17 738.31 1915.15 766.36 C1915.13 793.58 1915.12 820.81 1915.11 848.03 C1915.11 849.75 1915.11 851.46 1915.11 853.18 C1915.1 867.12 1915.1 881.06 1915.1 894.99 C1915.08 959.33 1915.04 1023.66 1915 1088 C1829.2 1088 1743.4 1088 1655 1088 C1654.96 1048.34 1654.93 1008.69 1654.89 967.83 C1654.86 944.22 1654.83 920.6 1654.8 896.99 C1654.78 883.13 1654.76 869.27 1654.74 855.42 C1654.74 853.74 1654.74 852.07 1654.73 850.39 C1654.7 823.73 1654.67 797.06 1654.65 770.4 C1654.63 742.97 1654.6 715.54 1654.56 688.11 C1654.55 684.23 1654.54 680.34 1654.54 676.46 C1654.54 675.7 1654.53 674.93 1654.53 674.14 C1654.51 661.89 1654.51 649.65 1654.5 637.4 C1654.5 625.05 1654.48 612.7 1654.45 600.35 C1654.44 593.68 1654.43 587 1654.43 580.32 C1654.66 534.95 1654.66 534.95 1648.25 490.12 C1647.99 488.94 1647.74 487.75 1647.47 486.53 C1634.63 428.86 1603.04 370.1 1557 332 C1556 331.12 1555 330.23 1554 329.34 C1500.61 282.09 1428.09 257.39 1357.03 261.31 C1281.77 266.02 1210.42 299.33 1159.91 355.65 C1155.01 361.23 1150.45 367.06 1146 373 C1145.58 373.56 1145.16 374.12 1144.73 374.69 C1118.59 409.65 1101.67 449.58 1093.19 492.31 C1092.99 493.29 1092.8 494.26 1092.6 495.27 C1089.29 513.02 1088.7 530.77 1088.72 548.78 C1088.72 551.12 1088.71 553.46 1088.7 555.8 C1088.69 562.17 1088.68 568.55 1088.68 574.92 C1088.68 581.1 1088.67 587.29 1088.65 593.47 C1088.63 606.11 1088.61 618.74 1088.6 631.38 C1088.59 643.88 1088.58 656.38 1088.56 668.88 C1088.56 670.04 1088.56 670.04 1088.55 671.24 C1088.55 675.19 1088.54 679.15 1088.54 683.11 C1088.49 711.09 1088.45 739.07 1088.42 767.05 C1088.39 794.22 1088.36 821.39 1088.32 848.56 C1088.31 850.27 1088.31 851.98 1088.31 853.69 C1088.29 867.59 1088.27 881.49 1088.25 895.39 C1088.15 959.6 1088.08 1023.8 1088 1088 C1001.87 1088 915.74 1088 827 1088 C827 1061.93 827 1035.86 827 1009 C820.07 1012.96 813.14 1016.92 806 1021 C802.18 1023.08 798.36 1025.13 794.5 1027.12 C793.55 1027.62 792.6 1028.11 791.62 1028.61 C714.67 1068.15 629.8 1088.24 543.31 1088.12 C540.96 1088.12 538.61 1088.12 536.26 1088.12 C530.52 1088.12 524.77 1088.12 519.02 1088.12 C512.03 1088.11 505.04 1088.11 498.05 1088.11 C485.22 1088.11 472.38 1088.11 459.55 1088.11 C442.2 1088.1 424.84 1088.1 407.49 1088.09 C365.78 1088.09 324.08 1088.08 282.38 1088.06 C189.19 1088.04 96.01 1088.02 0 1088 C0 728.96 0 369.92 0 0 Z M260 260 C260 447.44 260 634.88 260 828 C307.46 828.04 354.92 828.08 403.81 828.12 C418.76 828.14 433.71 828.16 449.1 828.18 C462.58 828.19 462.58 828.19 476.06 828.19 C482.04 828.19 488.01 828.2 493.98 828.21 C500.89 828.22 507.8 828.23 514.71 828.23 C518.23 828.23 521.76 828.23 525.28 828.24 C598.43 828.43 666.87 810.43 724 763 C724.84 762.32 724.84 762.32 725.69 761.62 C739.41 750.37 752.08 738.01 763 724 C763.94 722.86 764.88 721.72 765.82 720.59 C787.34 694.55 804 663.23 814 631 C814.27 630.14 814.53 629.28 814.81 628.4 C818.58 616.08 821.74 603.69 824 591 C824.15 590.2 824.3 589.4 824.46 588.58 C829.76 559.46 829.62 526.06 824 497 C823.82 496.06 823.65 495.12 823.46 494.15 C822.16 487.38 820.66 480.68 819 474 C818.68 472.69 818.68 472.69 818.35 471.36 C808.89 433.9 790.79 399.27 767 369 C766.23 368.02 765.46 367.03 764.67 366.02 C752.62 350.97 739.11 336.97 724 325 C722.86 324.06 721.71 323.11 720.57 322.16 C664.54 275.91 595.6 259.55 524.31 259.77 C520.69 259.78 517.08 259.77 513.46 259.77 C506.49 259.77 499.52 259.78 492.54 259.79 C484.45 259.81 476.36 259.81 468.27 259.81 C446.97 259.82 425.67 259.85 404.38 259.88 C332.91 259.94 332.91 259.94 260 260 Z " fill="#004986" transform="translate(543,543)"/>
<path d="M0 0 C1.53 -0 1.53 -0 3.08 -0 C95.4 0.06 187.26 24.9 342.69 124.25 C343.27 124.73 343.85 125.21 344.44 125.71 C351.83 131.84 359.01 138.17 366.04 144.72 C367.87 146.42 369.7 148.11 371.53 149.81 C372.85 151.04 374.18 152.27 375.5 153.5 C376.42 154.35 376.42 154.35 377.35 155.22 C383.38 160.84 389.17 166.58 394.55 172.83 C396.77 175.35 399.06 177.8 401.36 180.25 C407.42 186.71 413.17 193.31 418.69 200.25 C419.61 201.38 420.53 202.51 421.45 203.63 C485.19 281.88 526.9 378.3 540.94 482.12 C541.09 483.26 541.24 484.4 541.4 485.57 C543.97 506.28 544.99 526.97 544.93 547.83 C544.93 550.18 544.93 552.53 544.93 554.89 C544.94 561.27 544.93 567.65 544.92 574.03 C544.91 580.24 544.91 586.44 544.91 592.64 C544.92 605.3 544.91 617.97 544.9 630.63 C544.89 643.16 544.88 655.68 544.88 668.2 C544.88 668.98 544.88 669.76 544.88 670.57 C544.88 674.54 544.88 678.51 544.87 682.48 C544.87 710.52 544.86 738.56 544.84 766.61 C544.82 793.83 544.81 821.06 544.8 848.28 C544.8 850 544.8 851.71 544.8 853.43 C544.79 867.37 544.79 881.31 544.78 895.24 C544.76 959.58 544.72 1023.91 544.69 1088.25 C458.89 1088.25 373.09 1088.25 284.69 1088.25 C284.65 1048.59 284.61 1008.94 284.57 968.08 C284.55 944.47 284.52 920.85 284.48 897.24 C284.47 883.38 284.45 869.52 284.43 855.67 C284.43 853.99 284.42 852.32 284.42 850.64 C284.39 823.98 284.36 797.31 284.34 770.65 C284.32 743.22 284.29 715.79 284.24 688.36 C284.24 684.48 284.23 680.59 284.22 676.71 C284.22 675.95 284.22 675.18 284.22 674.39 C284.2 662.14 284.19 649.9 284.19 637.65 C284.18 625.3 284.17 612.95 284.14 600.6 C284.13 593.93 284.12 587.25 284.12 580.57 C284.35 535.2 284.35 535.2 277.94 490.38 C277.68 489.19 277.42 488 277.16 486.78 C264.32 429.11 232.73 370.35 186.69 332.25 C185.69 331.37 184.69 330.48 183.69 329.59 C130.3 282.34 57.78 257.64 -13.29 261.56 C-88.54 266.27 -159.9 299.58 -210.41 355.9 C-215.3 361.48 -219.86 367.31 -224.31 373.25 C-224.73 373.81 -225.15 374.37 -225.58 374.94 C-251.72 409.9 -268.64 449.83 -277.12 492.56 C-277.32 493.54 -277.52 494.51 -277.72 495.52 C-281.02 513.27 -281.61 531.02 -281.59 549.03 C-281.6 551.37 -281.6 553.71 -281.61 556.05 C-281.62 562.42 -281.63 568.8 -281.63 575.17 C-281.63 581.35 -281.65 587.54 -281.66 593.72 C-281.68 606.36 -281.7 618.99 -281.71 631.63 C-281.72 644.13 -281.73 656.63 -281.75 669.13 C-281.76 669.91 -281.76 670.68 -281.76 671.49 C-281.76 675.44 -281.77 679.4 -281.78 683.36 C-281.82 711.34 -281.86 739.32 -281.89 767.3 C-281.92 794.47 -281.96 821.64 -282 848.81 C-282 850.52 -282 852.23 -282 853.94 C-282.02 867.84 -282.04 881.74 -282.06 895.64 C-282.16 959.85 -282.23 1024.05 -282.31 1088.25 C-368.44 1088.25 -454.57 1088.25 -543.31 1088.25 C-543.31 995.34 -543.31 995.34 -543.26 957.85 C-543.25 953.17 -543.24 948.49 -543.24 943.81 C-543.18 900.25 -543.11 856.7 -543.03 813.15 C-543.02 806.74 -543.01 800.33 -543 793.92 C-542.99 793.21 -542.99 792.5 -542.99 791.78 C-542.95 768.68 -542.92 745.59 -542.89 722.5 C-542.86 698.56 -542.82 674.61 -542.77 650.67 C-542.77 647.29 -542.76 643.9 -542.75 640.52 C-542.75 639.85 -542.75 639.19 -542.75 638.5 C-542.73 627.23 -542.72 615.95 -542.71 604.68 C-542.69 594.67 -542.68 584.65 -542.65 574.64 C-542.64 568.89 -542.63 563.14 -542.63 557.38 C-542.61 514.51 -539.99 472.82 -530.56 430.88 C-530.39 430.1 -530.21 429.32 -530.03 428.52 C-517.79 374.07 -498.91 321.41 -470.31 273.25 C-469.78 272.36 -469.26 271.46 -468.71 270.54 C-461.34 258.13 -453.69 246 -445.31 234.25 C-444.56 233.18 -444.56 233.18 -443.79 232.08 C-436.96 222.39 -429.85 213.02 -422.29 203.9 C-419.65 200.7 -417.15 197.41 -414.68 194.08 C-404.06 179.85 -391.45 167.3 -378.94 154.75 C-378.01 153.82 -377.08 152.89 -376.13 151.93 C-371.02 146.83 -365.81 141.94 -360.31 137.25 C-359.12 136.2 -357.93 135.16 -356.74 134.11 C-349.04 127.35 -341.21 120.83 -333.07 114.6 C-331.35 113.28 -329.64 111.94 -327.93 110.6 C-284.81 77.16 -235.56 50.74 -184.31 32.25 C-182.47 31.58 -182.47 31.58 -180.59 30.91 C-140.6 16.58 -99.42 7.68 -57.25 2.94 C-56.52 2.86 -55.8 2.77 -55.05 2.69 C-36.72 0.66 -18.44 0.01 0 0 Z " fill="#AA192D" transform="translate(1913.3125,542.75)"/>
<path d="M0 0 C32.28 31.14 56.61 74.95 75.99 114.93 C77.07 117.15 78.18 119.35 79.29 121.56 C110.19 183.87 125.75 253.29 129.78 322.42 C129.93 324.8 130.08 327.18 130.25 329.56 C131.07 341.72 131.14 353.85 131.12 366.04 C131.12 368.33 131.12 370.63 131.12 372.93 C131.13 379.19 131.12 385.46 131.12 391.73 C131.11 397.8 131.11 403.88 131.11 409.95 C131.12 422.37 131.11 434.79 131.11 447.21 C131.1 459.5 131.1 471.78 131.09 484.07 C131.09 484.84 131.09 485.6 131.09 486.39 C131.09 490.28 131.09 494.16 131.09 498.05 C131.09 525.55 131.08 553.05 131.08 580.55 C131.07 607.26 131.06 633.96 131.05 660.67 C131.05 662.35 131.05 664.03 131.05 665.71 C131.05 679.37 131.05 693.03 131.05 706.69 C131.04 769.79 131.02 832.9 131 896 C44.87 896 -41.26 896 -130 896 C-130 803.09 -130 803.09 -129.94 765.6 C-129.94 760.92 -129.93 756.24 -129.93 751.56 C-129.87 708 -129.79 664.45 -129.72 620.9 C-129.7 614.49 -129.69 608.08 -129.68 601.67 C-129.68 600.96 -129.68 600.25 -129.68 599.53 C-129.64 576.43 -129.61 553.34 -129.58 530.25 C-129.54 506.31 -129.51 482.36 -129.46 458.42 C-129.45 455.04 -129.45 451.65 -129.44 448.27 C-129.44 447.6 -129.44 446.94 -129.44 446.25 C-129.42 434.98 -129.4 423.7 -129.39 412.43 C-129.38 402.42 -129.36 392.4 -129.34 382.39 C-129.33 376.64 -129.32 370.89 -129.32 365.13 C-129.3 322.26 -126.68 280.57 -117.25 238.62 C-117.08 237.85 -116.9 237.07 -116.72 236.27 C-104.48 181.82 -85.6 129.16 -57 81 C-56.47 80.11 -55.94 79.21 -55.4 78.29 C-48.03 65.88 -40.38 53.75 -32 42 C-31.5 41.29 -30.99 40.57 -30.47 39.83 C-23.64 30.14 -16.54 20.77 -8.97 11.65 C-5.85 7.86 -2.91 3.95 0 0 Z " fill="#480E66" transform="translate(1500,735)"/>
<path d="M0 0 C0.33 0 0.66 0 1 0 C1 176.22 1 352.44 1 534 C-85.13 534 -171.26 534 -260 534 C-260 507.6 -260 481.2 -260 454 C-256.65 451.32 -253.49 448.93 -249.93 446.6 C-248.96 445.96 -247.99 445.33 -246.99 444.67 C-245.45 443.66 -245.45 443.66 -243.88 442.62 C-227.23 431.6 -211.31 419.82 -196 407 C-195.39 406.49 -194.79 405.98 -194.16 405.46 C-192.37 403.96 -190.59 402.45 -188.81 400.94 C-188.32 400.52 -187.82 400.09 -187.31 399.66 C-176.73 390.57 -166.71 380.88 -156.87 371 C-155.11 369.23 -153.34 367.47 -151.58 365.71 C-145.84 359.98 -140.24 354.21 -135 348 C-134.05 346.92 -133.1 345.83 -132.15 344.75 C-124.35 335.81 -117.11 326.5 -110 317 C-109.13 315.84 -109.13 315.84 -108.24 314.67 C-100 303.73 -92.21 292.64 -85 281 C-84.44 280.1 -83.87 279.19 -83.29 278.26 C-73.37 262.25 -64.42 245.85 -56 229 C-55.51 228.02 -55.01 227.04 -54.5 226.02 C-46.66 210.4 -40.13 194.37 -34 178 C-33.55 176.81 -33.1 175.62 -32.64 174.4 C-27.1 159.6 -22.28 144.82 -18.6 129.45 C-18.06 127.26 -17.5 125.08 -16.93 122.9 C-13.73 110.71 -11.3 98.38 -9 86 C-8.78 84.83 -8.56 83.65 -8.34 82.44 C-3.37 55.13 -1.46 27.69 0 0 Z " fill="#AA192D" transform="translate(1630,1097)"/>
<path d="M0 0 C25 0 25 0 30.75 4.94 C31.82 6.64 32.88 8.34 33.86 10.09 C36.02 13.71 38.72 16.94 41.31 20.25 C42.42 21.71 43.53 23.17 44.63 24.62 C47.9 28.9 51.28 33.09 54.69 37.25 C59.41 43.02 64.02 48.86 68.54 54.79 C71.14 58.2 73.79 61.57 76.44 64.94 C77.12 65.81 77.12 65.81 77.82 66.7 C78.75 67.88 79.68 69.06 80.61 70.23 C82.91 73.15 85.2 76.08 87.5 79 C88.42 80.17 89.33 81.33 90.25 82.5 C117.75 117.5 117.75 117.5 119.13 119.25 C120.04 120.41 120.95 121.57 121.86 122.73 C124.23 125.75 126.6 128.76 128.96 131.78 C129.69 132.72 129.69 132.72 130.44 133.67 C131.36 134.85 132.29 136.03 133.21 137.21 C133.63 137.75 134.06 138.29 134.49 138.84 C134.86 139.31 135.22 139.78 135.6 140.26 C137.7 142.87 139.86 145.43 142 148 C142.33 99.16 142.66 50.32 143 0 C151.58 0 160.16 0 169 0 C169 65.67 169 131.34 169 199 C148 199 148 199 143.31 195.31 C142.16 193.57 141.06 191.8 140 190 C138.83 188.47 137.66 186.94 136.47 185.43 C135.17 183.79 133.9 182.12 132.63 180.45 C129.98 176.96 127.28 173.51 124.56 170.06 C124.11 169.48 123.65 168.9 123.18 168.3 C122.25 167.12 121.32 165.94 120.39 164.77 C118.09 161.85 115.8 158.92 113.5 156 C112.58 154.83 111.67 153.67 110.75 152.5 C105.25 145.5 105.25 145.5 103.88 143.75 C102.96 142.58 102.04 141.42 101.12 140.25 C98.84 137.35 96.56 134.44 94.29 131.54 C90.09 126.18 85.88 120.84 81.62 115.54 C76.85 109.61 72.16 103.63 67.56 97.56 C63.31 91.96 58.96 86.44 54.5 81 C48.86 74.13 43.44 67.12 38.07 60.04 C34.75 55.67 31.37 51.33 28 47 C27.67 97.16 27.34 147.32 27 199 C18.09 199 9.18 199 0 199 C0 133.33 0 67.66 0 0 Z " fill="#004A87" transform="translate(1545,1777)"/>
<path d="M0 0 C93.09 0 93.09 0 109.12 5.62 C110.22 6 110.22 6 111.34 6.39 C136.58 15.51 155.74 33.93 167.21 57.97 C173.17 71.01 175.38 84.51 175.31 98.75 C175.31 99.89 175.3 101.03 175.3 102.21 C175.18 110.83 174.37 118.68 172 127 C171.74 127.98 171.49 128.96 171.23 129.97 C164.03 154.52 147.07 173.61 125 186 C87.32 206.26 40.03 199 0 199 C0 133.33 0 67.66 0 0 Z M27 25 C27 73.84 27 122.68 27 173 C82.23 175.36 82.23 175.36 127.75 151.81 C144.05 134.25 148.03 113.1 147.19 89.95 C146.06 72.21 136.89 55.85 124 44 C96.24 20.23 62.05 25 27 25 Z " fill="#004A87" transform="translate(543,1777)"/>
<path d="M0 0 C8.91 0 17.82 0 27 0 C27 68.31 27 136.62 27 207 C18.09 207 9.18 207 0 207 C-0.49 196.61 -0.49 196.61 -1 186 C-2.28 187.34 -3.56 188.68 -4.88 190.06 C-17.94 203.06 -33.48 209.8 -52 210.38 C-72.34 209.75 -90.41 201.65 -104.43 187.02 C-119.53 169.32 -124.66 146.76 -123 124 C-121.52 108.53 -116.9 94.19 -107 82 C-106.36 81.17 -105.71 80.34 -105.05 79.48 C-94.67 66.96 -79.02 58.56 -63 56 C-42.16 54.26 -24.81 57.65 -8.44 71.19 C-5.44 73.72 -3.18 75.73 -1 79 C-0.67 52.93 -0.34 26.86 0 0 Z M-86 98.56 C-95.08 110.99 -97.92 127 -95.7 142.06 C-93.08 156.22 -87.48 167.91 -76 177 C-63.94 184.55 -52.12 187.53 -38 185 C-29.44 182.63 -22.49 179.06 -16 173 C-15.4 172.45 -14.8 171.9 -14.18 171.34 C-4.11 161.07 0.93 146.82 1.31 132.75 C1.05 117.12 -3.73 104.66 -14.52 93.29 C-24.85 83.74 -36.77 79.36 -50.7 79.53 C-65.49 80.14 -76.81 87.28 -86 98.56 Z " fill="#004A87" transform="translate(1434,1769)"/>
<path d="M0 0 C8.91 0 17.82 0 27 0 C27.33 26.07 27.66 52.14 28 79 C30.97 76.03 33.94 73.06 37 70 C53.77 57.23 71.51 53.74 92.33 56.28 C110.57 59.51 126.49 70.92 137.04 85.88 C145.01 98.56 149.47 113.02 150 128 C150.04 128.78 150.08 129.56 150.12 130.37 C150.73 152.15 143.66 172.8 129 189 C116.03 202.38 98.2 209.93 79.56 210.25 C59.02 209.94 43.21 202.63 29 188 C28.67 187.67 28.34 187.34 28 187 C27.67 193.6 27.34 200.2 27 207 C18.09 207 9.18 207 0 207 C0 138.69 0 70.38 0 0 Z M38 97 C27.4 110.68 24.97 125.2 26 142 C28 155.89 35.5 168.3 46.62 176.69 C58.62 184.63 71.69 187.66 85.84 184.93 C99.08 181.04 108.94 173.82 116 162 C123.46 147.46 124.85 131.81 121 116 C116.87 103.3 109.78 91.7 97.78 85.27 C76.14 74.98 54.38 79.53 38 97 Z " fill="#004A87" transform="translate(941,1769)"/>
<path d="M0 0 C8.58 0 17.16 0 26 0 C26 68.31 26 136.62 26 207 C17.42 207 8.84 207 0 207 C-0.33 199.74 -0.66 192.48 -1 185 C-2.71 186.82 -4.42 188.63 -6.19 190.5 C-17.34 201.84 -30.93 208.96 -47 210 C-47.78 210.05 -48.56 210.1 -49.37 210.16 C-61.82 210.6 -74.06 207.97 -85 202 C-85.84 201.56 -86.68 201.12 -87.54 200.66 C-102.43 192.33 -113.23 179 -119 163 C-119.59 161.39 -119.59 161.39 -120.19 159.74 C-126.53 138.99 -125.21 114.06 -115.69 94.5 C-112.64 88.83 -109.29 83.79 -105 79 C-104.35 78.25 -103.69 77.5 -103.02 76.73 C-92.57 65.53 -77.06 56.85 -61.51 55.84 C-40.01 55.49 -23.53 58.06 -7 73 C-5.02 74.98 -3.04 76.96 -1 79 C-0.67 52.93 -0.34 26.86 0 0 Z M-86.25 97.62 C-95.63 110.38 -98.03 126.1 -96.38 141.56 C-94.09 156.37 -87.14 169.08 -75 178 C-62.36 185.51 -49.7 187.64 -35.35 184.06 C-22.63 180.04 -12.72 171.67 -6.49 159.91 C0.57 145.82 2.77 130.29 -1.62 114.88 C-6.94 100.43 -16.15 90.17 -29.99 83.34 C-50.02 74.43 -72.43 81.15 -86.25 97.62 Z " fill="#004A87" transform="translate(2053,1769)"/>
<path d="M0 0 C1.36 0.56 1.36 0.56 2.74 1.13 C8.82 3.92 13.95 7.65 19 12 C19.61 12.51 20.21 13.02 20.84 13.55 C29.91 21.84 35.36 33.45 39 45 C39.32 46.01 39.64 47.01 39.97 48.05 C43.19 60.28 42 70.69 42 84 C4.71 84 -32.58 84 -71 84 C-65.51 100.46 -60.45 112.74 -44.88 120.88 C-33.1 126.54 -18.47 126.94 -5.94 123.44 C4.71 119.54 12.89 112.76 21 105 C27 109.32 32.54 114.02 38 119 C37.07 125.65 30.43 130.38 25.35 134.26 C6.71 147.57 -14.24 152.42 -36.9 149.5 C-56.32 145.75 -72.66 135.7 -84.36 119.79 C-97.16 99.89 -101.07 76.76 -96.41 53.7 C-92.14 34.69 -82.03 17.25 -65.48 6.49 C-46.02 -5.17 -21.45 -8.94 0 0 Z M-59.55 34.02 C-66.06 42.71 -69.47 51.26 -71 62 C-42.62 62 -14.24 62 15 62 C13.71 50.41 10.84 40.77 3 32 C2.49 31.39 1.98 30.77 1.45 30.14 C-4.67 23.31 -13.39 19.38 -22.5 18.76 C-37.42 18.35 -49.57 22.2 -59.55 34.02 Z " fill="#004A87" transform="translate(882,1829)"/>
<path d="M0 0 C14.83 13.04 24.58 29.77 27 49.56 C28.33 73.48 23.72 94.22 7.69 112.75 C-6.33 127.64 -24.7 137.06 -45.35 137.77 C-67.53 138.13 -87.22 132.35 -103.62 116.89 C-104.41 116.12 -105.19 115.36 -106 114.56 C-106.7 113.89 -107.4 113.21 -108.12 112.51 C-122.98 97.1 -127.48 76.46 -127.21 55.69 C-126.58 34.46 -116.51 17.1 -101.84 2.4 C-74.26 -23.53 -29.13 -23.02 0 0 Z M-86 21.56 C-97.75 35.38 -101.32 50.84 -100 68.56 C-97.76 83.63 -89.2 96.41 -77.12 105.44 C-66.31 112.58 -53.74 115.16 -40.97 113.07 C-27.71 110.05 -16.4 103.73 -8.63 92.22 C-0.06 78.52 2.1 63.46 -0.69 47.65 C-4.52 32.94 -12.95 20.88 -26.08 13.07 C-46.26 2.68 -69.63 5.37 -86 21.56 Z " fill="#004A87" transform="translate(2220,1841.4375)"/>
<path d="M0 0 C15.84 12.11 25.43 28.52 29.7 47.81 C32.45 70.69 28.57 92.4 14.59 111.05 C13.44 112.41 12.27 113.74 11.09 115.05 C10.52 115.71 9.95 116.37 9.36 117.05 C-3.86 131.43 -23.32 139.4 -42.6 140.34 C-64.51 140.96 -84.43 134.56 -100.54 119.39 C-101.32 118.62 -102.11 117.85 -102.91 117.05 C-103.62 116.38 -104.32 115.7 -105.04 115 C-119.68 99.82 -124.44 79.28 -124.12 58.75 C-123.42 37.5 -113.89 19.07 -98.74 4.47 C-70.57 -19.64 -30.44 -20.32 0 0 Z M-78.91 21.05 C-79.57 21.58 -80.23 22.11 -80.91 22.66 C-89.65 30.38 -96.13 43.39 -96.91 55.05 C-97.89 71.67 -94.7 86.48 -83.66 99.37 C-73.45 110.01 -61.58 115.8 -46.79 116.3 C-32.91 116.14 -21.15 110.91 -11.17 101.43 C0.36 89.27 3.52 75.05 3.3 58.86 C2.86 44.89 -2.89 33.41 -12.43 23.34 C-31.23 6 -59.27 4.12 -78.91 21.05 Z " fill="#004A87" transform="translate(1226.9140625,1838.9453125)"/>
<path d="M0 0 C27.3 -2.52 27.3 -2.52 34.53 1.36 C38.39 4.88 40.68 9.23 42.92 13.89 C44.56 17.09 46.67 19.64 48.94 22.44 C51.75 26.08 54.55 29.72 57.34 33.38 C58.2 34.51 58.2 34.51 59.08 35.67 C60.2 37.14 61.33 38.61 62.45 40.09 C65.54 44.14 68.7 48.11 72 52 C77.45 44.93 82.89 37.84 88.31 30.75 C88.85 30.04 89.39 29.34 89.95 28.61 C92.83 24.84 95.7 21.08 98.58 17.31 C99.45 16.17 99.45 16.17 100.35 15 C101.46 13.54 102.57 12.08 103.69 10.62 C104.19 9.96 104.7 9.29 105.22 8.61 C105.66 8.03 106.1 7.45 106.56 6.86 C107.03 6.25 107.51 5.63 108 5 C108.57 4.11 109.15 3.22 109.74 2.3 C112 0 112 0 115.21 -0.57 C116.44 -0.54 117.68 -0.52 118.95 -0.49 C119.94 -0.48 119.94 -0.48 120.95 -0.47 C123.05 -0.44 125.15 -0.38 127.25 -0.31 C128.68 -0.29 130.1 -0.26 131.53 -0.24 C135.02 -0.19 138.51 -0.1 142 0 C140.74 2.66 139.37 5.01 137.6 7.36 C137.13 8 136.66 8.63 136.17 9.28 C135.66 9.95 135.15 10.62 134.62 11.31 C134.09 12.02 133.56 12.72 133.02 13.45 C128.89 18.9 124.65 24.25 120.36 29.57 C116.4 34.48 112.55 39.45 108.72 44.46 C106.63 47.19 104.52 49.9 102.41 52.6 C101.78 53.4 101.16 54.2 100.51 55.03 C99.28 56.6 98.05 58.17 96.82 59.73 C93.7 63.72 90.74 67.74 88 72 C93.85 79.84 99.76 87.62 105.73 95.36 C107.83 98.07 109.91 100.79 112 103.5 C112.83 104.58 113.67 105.67 114.5 106.75 C116.17 108.92 117.83 111.08 119.5 113.25 C120.12 114.05 120.12 114.05 120.75 114.88 C121.58 115.96 122.41 117.04 123.25 118.12 C125.35 120.86 127.46 123.59 129.57 126.32 C145 146.26 145 146.26 145 148 C140.75 148.27 136.51 148.47 132.25 148.6 C130.81 148.66 129.36 148.73 127.92 148.83 C116.04 149.6 116.04 149.6 111.22 145.82 C108.89 142.99 106.93 140.11 105 137 C103.86 135.46 102.71 133.92 101.55 132.4 C100.47 130.92 99.39 129.43 98.31 127.94 C92.91 120.53 87.37 113.25 81.71 106.05 C81.16 105.36 80.62 104.67 80.06 103.95 C79.54 103.3 79.02 102.64 78.49 101.96 C77 100.01 75.61 98.01 74.22 95.98 C73.49 95 72.76 94.01 72 93 C71.34 93 70.68 93 70 93 C68.21 95.19 66.53 97.4 64.88 99.69 C63.79 101.16 62.7 102.64 61.61 104.11 C61.03 104.9 60.45 105.69 59.85 106.51 C56.63 110.85 53.34 115.14 50.06 119.44 C49.39 120.32 48.72 121.2 48.03 122.1 C46.68 123.87 45.34 125.63 43.99 127.4 C42.03 129.96 40.08 132.52 38.12 135.08 C36.94 136.64 35.75 138.19 34.56 139.75 C34.01 140.47 33.46 141.19 32.9 141.94 C29.11 146.89 29.11 146.89 28 148 C25.78 148.09 23.56 148.11 21.34 148.1 C20.34 148.1 20.34 148.1 19.33 148.09 C17.2 148.09 15.07 148.08 12.94 148.06 C11.5 148.06 10.06 148.05 8.62 148.05 C5.08 148.04 1.54 148.02 -2 148 C-0.71 145.27 0.7 142.91 2.55 140.52 C3.05 139.86 3.56 139.2 4.09 138.52 C4.91 137.46 4.91 137.46 5.75 136.38 C6.32 135.63 6.9 134.88 7.49 134.11 C12.23 127.97 17 121.85 21.77 115.73 C26.24 109.99 30.68 104.22 35.07 98.42 C37.98 94.6 40.94 90.82 43.96 87.07 C44.94 85.85 44.94 85.85 45.94 84.6 C47.21 83.02 48.48 81.45 49.77 79.89 C50.34 79.18 50.91 78.46 51.49 77.73 C52.26 76.79 52.26 76.79 53.03 75.84 C54.19 74.05 54.19 74.05 53.81 71.99 C52.94 69.85 51.94 68.3 50.52 66.49 C50 65.82 49.48 65.15 48.95 64.47 C48.39 63.76 47.83 63.05 47.25 62.31 C46.06 60.78 44.87 59.25 43.68 57.72 C43.07 56.94 42.46 56.16 41.83 55.35 C38.97 51.67 36.14 47.96 33.31 44.25 C28.69 38.2 24.05 32.16 19.41 26.12 C17.74 23.96 16.07 21.79 14.41 19.62 C13.98 19.06 13.55 18.5 13.1 17.93 C12.25 16.83 11.41 15.72 10.56 14.62 C7.46 10.59 4.33 6.59 1.18 2.61 C0 1 0 1 0 0 Z " fill="#004A87" transform="translate(1793,1828)"/>
<path d="M0 0 C1.08 -0.02 2.16 -0.04 3.27 -0.06 C10.53 -0.1 17.02 0.76 23.88 3.25 C24.88 4.25 24.88 4.25 24.99 6.47 C24.98 7.91 24.98 7.91 24.97 9.38 C24.97 10.93 24.97 10.93 24.96 12.51 C24.95 14.15 24.95 14.15 24.94 15.81 C24.93 16.9 24.93 18 24.92 19.12 C24.91 21.83 24.9 24.54 24.88 27.25 C20.52 26.74 16.28 26.19 12 25.19 C3.95 23.56 -3.75 23.17 -11.12 27.25 C-16.28 31.26 -16.62 33.56 -19.12 40.25 C-19.78 46.85 -20.45 53.45 -21.12 60.25 C-5.95 60.25 9.24 60.25 24.88 60.25 C24.88 67.84 24.88 75.43 24.88 83.25 C10.03 83.25 -4.82 83.25 -20.12 83.25 C-20.12 124.5 -20.12 165.75 -20.12 208.25 C-29.03 208.25 -37.95 208.25 -47.12 208.25 C-47.12 167 -47.12 125.75 -47.12 83.25 C-53.39 83.25 -59.66 83.25 -66.12 83.25 C-66.12 75.66 -66.12 68.07 -66.12 60.25 C-59.86 60.25 -53.59 60.25 -47.12 60.25 C-47.17 58.06 -47.21 55.88 -47.25 53.62 C-47.31 38.32 -45.1 22.79 -34.12 11.25 C-23.92 1.95 -13.38 0.06 0 0 Z " fill="#004A87" transform="translate(2432.125,1767.75)"/>
<path d="M0 0 C0 9.24 0 18.48 0 28 C-3.87 28.37 -3.87 28.37 -7.81 28.75 C-22.62 30.4 -35.19 35.67 -44.96 47.25 C-57.14 63.72 -58.07 83.15 -58.32 102.86 C-58.34 104.25 -58.36 105.65 -58.38 107.05 C-58.43 110.68 -58.48 114.32 -58.53 117.96 C-58.58 121.69 -58.64 125.41 -58.69 129.14 C-58.8 136.43 -58.9 143.71 -59 151 C-67.58 151 -76.16 151 -85 151 C-85 102.16 -85 53.32 -85 3 C-76.42 3 -67.84 3 -59 3 C-58.67 11.91 -58.34 20.82 -58 30 C-55.69 27.03 -53.38 24.06 -51 21 C-37.5 4.96 -20.5 0 0 0 Z " fill="#004A87" transform="translate(2347,1825)"/>
<path d="M0 0 C8.58 0 17.16 0 26 0 C26 68.31 26 136.62 26 207 C17.42 207 8.84 207 0 207 C0 138.69 0 70.38 0 0 Z " fill="#004A87" transform="translate(1269,1769)"/>
<path d="M0 0 C8.91 0 17.82 0 27 0 C27 47.19 27 94.38 27 143 C18.09 143 9.18 143 0 143 C0 95.81 0 48.62 0 0 Z " fill="#004A87" transform="translate(737,1833)"/>
<path d="M0 0 C8.58 0 17.16 0 26 0 C26 48.84 26 97.68 26 148 C17.42 148 8.84 148 0 148 C0 99.16 0 50.32 0 0 Z " fill="#004A87" transform="translate(1748,1828)"/>
<path d="M0 0 C4.36 2.27 6.85 4.95 9 9.32 C10.22 13.95 10.25 17.44 8.93 22.07 C6.39 26.33 3.5 29.06 -1 31.32 C-6.26 31.84 -10.65 31.98 -15.44 29.63 C-20.59 24.98 -22.73 21.86 -23.17 14.88 C-22.81 9.36 -20.38 5.62 -16.44 1.88 C-11.49 -1.29 -5.59 -1.91 0 0 Z " fill="#004A87" transform="translate(1769.00390625,1779.68359375)"/>
<path d="M0 0 C4.47 3.01 7.21 6.63 8.69 11.81 C9.17 17.08 8.51 20.33 5.69 24.81 C2.37 28.55 0.28 30.56 -4.8 31.05 C-10.83 31.21 -14.68 31.11 -19.31 26.81 C-22.78 22.59 -24.22 19.29 -24.31 13.81 C-23.42 9.16 -22.26 5.76 -18.88 2.38 C-12.47 -1.53 -7.25 -2.6 0 0 Z " fill="#004A87" transform="translate(758.3125,1780.1875)"/>
</svg>
